<?xml version="1.0" encoding="utf-8"?>
<!-- Generated by IcoMoon.io -->
<!DOCTYPE svg PUBLIC "-//W3C//DTD SVG 1.1//EN" "http://www.w3.org/Graphics/SVG/1.1/DTD/svg11.dtd">
<svg version="1.1" xmlns="http://www.w3.org/2000/svg" xmlns:xlink="http://www.w3.org/1999/xlink" width="20" height="20" viewBox="0 0 20 20">
<g>
</g>
	<path d="M16.667 0.833h-14.167c-1.378 0-2.5 1.122-2.5 2.5v10c0 1.378 1.667 1.667 2.5 1.667v5l7.5-5h6.667c1.378 0 2.5-1.122 2.5-2.5v-9.167c0-1.378-1.122-2.5-2.5-2.5zM17.5 12.5c0 0.459-0.374 0.833-0.833 0.833h-7.5l-5 4.167v-4.167h-1.667c-0.459 0-0.833-0.374-0.833-0.833v-9.167c0-0.459 0.374-0.833 0.833-0.833h14.167c0.459 0 0.833 0.374 0.833 0.833v9.167zM3.333 5h10v1.667h-10zM3.333 7.5h12.5v0.833h-12.5zM3.333 9.167h12.5v0.833h-12.5zM3.333 10.833h6.667v0.833h-6.667z" fill="#ffffff" />
</svg>
