<svg xmlns="http://www.w3.org/2000/svg" width="33" height="32" viewBox="0 0 33 32">
  <path fill="#fff" d="M0 20.863L11.137 32s2.66-6.31-1.083-10.053C6.354 18.247 0 20.863 0 20.863zm29.875.885l-5.656 5.656.706.707 5.656-5.655-.707-.707zm2.828 1.414l-6.363-6.365c-.78-.78-2.05-.78-2.828 0l-.558.558-1.56-1.56 2.797-2.797c.782-.78.694-2.136-.087-2.917l-3.447-3.446c-.78-.78-2.047-.78-2.828 0l-2.543 2.454-1.34-1.34.09-.09c.782-.78.782-2.048 0-2.83L7.673-1.535c-.78-.78-2.047-.78-2.83 0L.603 2.707c-.782.78-.782 2.048 0 2.83L6.964 11.9c.78.78 2.047.78 2.83 0l1.39-1.39 1.378 1.39-2.56 2.558c-.78.78-.485 5.128-.485 5.128l1.723 1.723s4.347.294 5.128-.487l2.214-2.213 1.56 1.56-.874.874c-.78.78-.78 2.047 0 2.828l6.365 6.363c.78.78 2.047.78 2.828 0l4.243-4.242c.78-.784.78-2.05 0-2.83zM1.308 3.414L5.55-.83c.39-.39 1.024-.39 1.415 0L1.308 4.83c-.39-.39-.39-1.024 0-1.414zm.707 2.12L7.672-.12l.707.707L2.72 6.242l-.707-.707zM3.43 6.95L9.085 1.29 9.793 2 4.137 7.656 3.43 6.95zm1.414 1.414L10.5 2.707l.708.707L5.55 9.07l-.706-.706zm1.414 1.414l5.657-5.657.707.708-5.657 5.657-.707-.707zm2.828 1.414c-.39.39-1.023.39-1.414 0l5.657-5.657c.39.39.39 1.024 0 1.414L9.085 11.19zm2.822 5.306l-.53-.53 7.31-7.31.53.53-7.31 7.31zm8.067 5.25l4.244-4.244c.39-.39 1.022-.39 1.413 0l-5.658 5.658c-.39-.39-.39-1.023 0-1.414zm12.02 3.535l-4.24 4.242c-.392.39-1.024.39-1.415 0l-4.243-4.243 5.656-5.656-.707-.707-5.658 5.655-.707-.707 5.66-5.658 5.655 5.658c.392.392.392 1.025 0 1.415zm-.706-2.12l-5.657 5.655.707.707 5.656-5.656-.707-.708zm-2.83-2.83l-5.655 5.657.707.707 5.656-5.656-.707-.706z"/>
</svg>
