<?xml version="1.0" encoding="utf-8"?>
<!-- Generated by IcoMoon.io -->
<!DOCTYPE svg PUBLIC "-//W3C//DTD SVG 1.1//EN" "http://www.w3.org/Graphics/SVG/1.1/DTD/svg11.dtd">
<svg version="1.1" xmlns="http://www.w3.org/2000/svg" xmlns:xlink="http://www.w3.org/1999/xlink" width="20" height="20" viewBox="0 0 20 20">
<g>
</g>
	<path d="M18.571 16.786v-8.571q-0.357 0.402-0.77 0.737-2.991 2.299-4.754 3.772-0.569 0.48-0.926 0.748t-0.965 0.541-1.144 0.273h-0.022q-0.536 0-1.144-0.273t-0.965-0.541-0.926-0.748q-1.763-1.473-4.754-3.772-0.413-0.335-0.77-0.737v8.571q0 0.145 0.106 0.251t0.251 0.106h16.429q0.145 0 0.251-0.106t0.106-0.251zM18.571 5.056v-0.273t-0.006-0.145-0.033-0.14-0.061-0.1-0.1-0.084-0.156-0.028h-16.429q-0.145 0-0.251 0.106t-0.106 0.251q0 1.875 1.641 3.17 2.154 1.696 4.475 3.538 0.067 0.056 0.391 0.329t0.513 0.419 0.497 0.352 0.564 0.307 0.48 0.1h0.022q0.223 0 0.48-0.1t0.564-0.307 0.497-0.352 0.513-0.419 0.391-0.329q2.321-1.842 4.475-3.538 0.603-0.48 1.122-1.289t0.519-1.468zM20 4.643v12.143q0 0.737-0.525 1.261t-1.261 0.525h-16.429q-0.737 0-1.261-0.525t-0.525-1.261v-12.143q0-0.737 0.525-1.261t1.261-0.525h16.429q0.737 0 1.261 0.525t0.525 1.261z" fill="#ffffff" />
</svg>
