<?xml version="1.0" encoding="utf-8"?>
<!-- Generated by IcoMoon.io -->
<!DOCTYPE svg PUBLIC "-//W3C//DTD SVG 1.1//EN" "http://www.w3.org/Graphics/SVG/1.1/DTD/svg11.dtd">
<svg version="1.1" xmlns="http://www.w3.org/2000/svg" xmlns:xlink="http://www.w3.org/1999/xlink" width="20" height="20" viewBox="0 0 20 20">
<g>
</g>
	<path d="M19.73 16.658c-1.398-3.34-4.095-4.894-6.186-5.616 0.933-1.281 1.444-3.16 1.464-5.458 0.034-3.88-3.165-4.934-4.861-4.948-1.697-0.015-4.913 0.983-4.948 4.863-0.020 2.298 0.458 4.184 1.368 5.482-2.103 0.683-4.829 2.193-6.283 5.507l-0.344 0.782 0.791 0.325c0.172 0.069 4.272 1.725 9.252 1.768 4.981 0.044 9.108-1.539 9.283-1.606l0.796-0.31-0.331-0.789zM10.128 2.303c0.332 0.007 3.242 0.148 3.214 3.267-0.022 2.497-0.701 4.395-1.86 5.209l-1.434 1.007-1.413-1.031c-1.146-0.835-1.791-2.745-1.768-5.242 0.027-3.12 2.939-3.21 3.262-3.211zM9.998 17.697c-3.372-0.029-6.373-0.872-7.784-1.339 1.525-2.671 4.109-3.714 6.093-4.114l1.741-0.351 1.734 0.38c1.978 0.436 4.543 1.524 6.023 4.22-1.416 0.443-4.425 1.234-7.807 1.204z" fill="#ffffff" />
</svg>
